<svg xmlns="http://www.w3.org/2000/svg" xml:space="preserve" style="enable-background:new 0 0 70 70" viewBox="0 0 70 70">
<path d="M70 59.7C70 65.4 65.3 70 59.5 70H10.6C4.7 70 0 65.4 0 59.7v-48C0 5.9 4.7 1.3 10.6 1.3h48.9C65.3 1.3 70 5.9 70 11.6v48.1z" style="fill:#e31837"/>
<path d="M20.3 61.2H10.1L41.7 7.4l7.6 12.3c-15.7 7.8-27.6 25.9-29 41.5" style="fill:#fdbb30"/>
<path d="M29.3 61.2h-8.9c3.3-18.1 15-31.8 30.2-39.1l3.1 5.3c-13 6.3-22.7 19.2-24.4 33.8" style="fill:#fdbb30"/>
<path d="M29.5 61.2C31.6 46.7 41.9 34.9 54.7 29l6 10.4c-8.4 3.9-15.1 11.5-17.2 20.3l-.3 1.5H29.5z" style="fill:#fdbb30"/></svg>